<svg height="16" width="16" xmlns="http://www.w3.org/2000/svg" xmlns:xlink="http://www.w3.org/1999/xlink"><defs><path id="a" d="m8 1c.412 0 .679.168 1.018.508l5.726 5.725a.875.875 0 1 1 -1.238 1.238l-5.506-5.507-5.506 5.507a.875.875 0 1 1 -1.238-1.238l5.746-5.746c.333-.332.586-.487.998-.487zm0 6c.412 0 .679.168 1.018.508l5.726 5.725a.875.875 0 1 1 -1.238 1.238l-5.506-5.507-5.506 5.507a.875.875 0 1 1 -1.238-1.238l5.746-5.746c.333-.332.586-.487.998-.487z"/><mask id="b" fill="#fff"><use fill="none" xlink:href="#a"/></mask></defs><g fill="none" fill-rule="evenodd"><path d="m-540-538h1366v768h-1366z" fill="none"/><g opacity=".3"><path d="m0 0h16v16h-16z"/><use fill="#000" fill-rule="nonzero" xlink:href="#a"/><g fill="#333" mask="url(#b)"><path d="m-82-57h180v130h-180z"/></g></g></g></svg>